{"accessors" : [{"bufferView" : 0, "byteOffset" : 0, "componentType" : 5123, "count" : 6456, "type" : "SCALAR", "max" : [6455], "min" : [0]}, {"bufferView" : 1, "byteOffset" : 0, "componentType" : 5126, "count" : 6456, "type" : "VEC3", "max" : [15.960000038146973, 11.399999618530273, 7.960000038146973], "min" : [-15.960000038146973, 0.019999999552965164, -7.960000038146973], "name" : "POSITION"}, {"bufferView" : 1, "byteOffset" : 12, "componentType" : 5126, "count" : 6456, "type" : "VEC3", "max" : [1.0000044107437134, 1.0000044107437134, 1.0000044107437134], "min" : [-1.0000044107437134, -1.0000044107437134, -1.0000044107437134], "name" : "NORMAL"}, {"bufferView" : 1, "byteOffset" : 24, "componentType" : 5126, "count" : 6456, "type" : "VEC2", "max" : [0.9890000224113464, 0.9996740221977234], "min" : [0.0001539999939268455, 0.017000019550323486], "name" : "TEXCOORD_0"}, {"bufferView" : 0, "byteOffset" : 12912, "componentType" : 5123, "count" : 3144, "type" : "SCALAR", "max" : [2589], "min" : [0]}, {"bufferView" : 2, "byteOffset" : 0, "componentType" : 5126, "count" : 2590, "type" : "VEC3", "max" : [7.960000038146973, 11.399999618530273, 7.960000038146973], "min" : [-7.960000038146973, 0.019999999552965164, -7.960000038146973], "name" : "POSITION"}, {"bufferView" : 2, "byteOffset" : 12, "componentType" : 5126, "count" : 2590, "type" : "VEC3", "max" : [1.0000044107437134, 1.0000044107437134, 1.0000044107437134], "min" : [-1.0000044107437134, -1.0000044107437134, -1.0000044107437134], "name" : "NORMAL"}, {"bufferView" : 2, "byteOffset" : 24, "componentType" : 5126, "count" : 2590, "type" : "VEC2", "max" : [0.9890000224113464, 0.9739999771118164], "min" : [0.013000000268220901, 0.026000022888183594], "name" : "TEXCOORD_0"}], "asset" : {"generator" : "Aspose.3D 25.3.0", "version" : "2.0"}, "buffers" : [{"uri" : "data:application/octet-stream;base64,", "byteLength" : 308684}], "bufferViews" : [{"buffer" : 0, "byteOffset" : 0, "byteLength" : 19200, "target" : 34963}, {"buffer" : 0, "byteOffset" : 19204, "byteLength" : 206592, "byteStride" : 32, "target" : 34962}, {"buffer" : 0, "byteOffset" : 225800, "byteLength" : 82880, "byteStride" : 32, "target" : 34962}], "materials" : [{"name" : "MB|42", "pbrMetallicRoughness" : {"baseColorFactor" : [0.13843161502267545, 0.5028864580233624, 0.5583403896257968, 1], "metallicFactor" : 1, "roughnessFactor" : 1}, "emissiveFactor" : [0, 0, 0], "alphaMode" : "OPAQUE", "doubleSided" : false}], "meshes" : [{"primitives" : [{"attributes" : {"POSITION" : 1, "NORMAL" : 2, "TEXCOORD_0" : 3}, "indices" : 0, "material" : 0, "mode" : 4}], "name" : ""}, {"primitives" : [{"attributes" : {"POSITION" : 5, "NORMAL" : 6, "TEXCOORD_0" : 7}, "indices" : 4, "material" : 0, "mode" : 4}], "name" : ""}], "nodes" : [{"matrix" : [1, 0, 0, 0, 0, 1, 0, 0, 0, 0, 1, 0, 0, 0, 40, 1], "mesh" : 0, "name" : "Part.0"}, {"matrix" : [1, 0, 0, 0, 0, 1, 0, 0, 0, 0, 1, 0, -16, 9.6, 40, 1], "mesh" : 0, "name" : "Part.1"}, {"matrix" : [1, 0, 0, 0, 0, 1, 0, 0, 0, 0, 1, 0, 16, 9.6, 40, 1], "mesh" : 0, "name" : "Part.2"}, {"matrix" : [1, 0, 0, 0, 0, 1, 0, 0, 0, 0, 1, 0, -16, 28.8, 40, 1], "mesh" : 0, "name" : "Part.3"}, {"matrix" : [1, 0, 0, 0, 0, 1, 0, 0, 0, 0, 1, 0, 16, 28.8, 40, 1], "mesh" : 0, "name" : "Part.4"}, {"matrix" : [0, 0, -1, 0, 0, 1, 0, 0, 1, 0, 0, 0, -24, 0, 16, 1], "mesh" : 0, "name" : "Part.5"}, {"matrix" : [0, 0, -1, 0, 0, 1, 0, 0, 1, 0, 0, 0, -24, 19.2, 16, 1], "mesh" : 0, "name" : "Part.6"}, {"matrix" : [0, 0, -1, 0, 0, 1, 0, 0, 1, 0, 0, 0, 24, 0, 16, 1], "mesh" : 0, "name" : "Part.7"}, {"matrix" : [0, 0, -1, 0, 0, 1, 0, 0, 1, 0, 0, 0, 24, 19.2, 16, 1], "mesh" : 0, "name" : "Part.8"}, {"matrix" : [1, 0, 0, 0, 0, 1, 0, 0, 0, 0, 1, 0, 16, 28.8, 8, 1], "mesh" : 0, "name" : "Part.9"}, {"matrix" : [1, 0, 0, 0, 0, 1, 0, 0, 0, 0, 1, 0, -16, 28.8, 8, 1], "mesh" : 0, "name" : "Part.10"}, {"matrix" : [0, 0, -1, 0, 0, 1, 0, 0, 1, 0, 0, 0, 24, 38.4, 24, 1], "mesh" : 0, "name" : "Part.11"}, {"matrix" : [0, 0, -1, 0, 0, 1, 0, 0, 1, 0, 0, 0, -24, 38.4, 24, 1], "mesh" : 0, "name" : "Part.12"}, {"matrix" : [1, 0, 0, 0, 0, 1, 0, 0, 0, 0, 1, 0, 0, 38.4, 32, 1], "mesh" : 0, "name" : "Part.13"}, {"matrix" : [1, 0, 0, 0, 0, 1, 0, 0, 0, 0, 1, 0, 0, 38.4, 16, 1], "mesh" : 0, "name" : "Part.14"}, {"matrix" : [1, 0, 0, 0, 0, 1, 0, 0, 0, 0, 1, 0, 0, 48, 24, 1], "mesh" : 0, "name" : "Part.15"}, {"matrix" : [1, 0, 0, 0, 0, 1, 0, 0, 0, 0, 1, 0, 24, 0, 40, 1], "mesh" : 1, "name" : "Part.16"}, {"matrix" : [1, 0, 0, 0, 0, 1, 0, 0, 0, 0, 1, 0, -24, 0, 40, 1], "mesh" : 1, "name" : "Part.17"}, {"matrix" : [1, 0, 0, 0, 0, 1, 0, 0, 0, 0, 1, 0, 24, 19.2, 40, 1], "mesh" : 1, "name" : "Part.18"}, {"matrix" : [1, 0, 0, 0, 0, 1, 0, 0, 0, 0, 1, 0, -24, 19.2, 40, 1], "mesh" : 1, "name" : "Part.19"}, {"matrix" : [0, 0, -1, 0, 0, 1, 0, 0, 1, 0, 0, 0, 24, 48, 24, 1], "mesh" : 1, "name" : "Part.20"}, {"matrix" : [1, 0, 0, 0, 0, 1, 0, 0, 0, 0, 1, 0, -24, 28.8, 24, 1], "mesh" : 1, "name" : "Part.21"}, {"matrix" : [0, 0, -1, 0, 0, 1, 0, 0, 1, 0, 0, 0, -24, 9.6, 8, 1], "mesh" : 1, "name" : "Part.22"}, {"matrix" : [0, 0, -1, 0, 0, 1, 0, 0, 1, 0, 0, 0, -24, 9.6, 24, 1], "mesh" : 1, "name" : "Part.23"}, {"matrix" : [0, 0, -1, 0, 0, 1, 0, 0, 1, 0, 0, 0, 24, 9.6, 24, 1], "mesh" : 1, "name" : "Part.24"}, {"matrix" : [0, 0, -1, 0, 0, 1, 0, 0, 1, 0, 0, 0, 24, 9.6, 8, 1], "mesh" : 1, "name" : "Part.25"}, {"matrix" : [0, 0, -1, 0, 0, 1, 0, 0, 1, 0, 0, 0, 24, 28.8, 24, 1], "mesh" : 1, "name" : "Part.26"}, {"matrix" : [0, 0, -1, 0, 0, 1, 0, 0, 1, 0, 0, 0, -24, 48, 24, 1], "mesh" : 1, "name" : "Part.27"}, {"matrix" : [1, 0, 0, 0, 0, 1, 0, 0, 0, 0, 1, 0, 8, 0, 8, 1], "mesh" : 1, "name" : "Part.28"}, {"matrix" : [1, 0, 0, 0, 0, 1, 0, 0, 0, 0, 1, 0, 8, 9.6, 8, 1], "mesh" : 1, "name" : "Part.29"}, {"matrix" : [1, 0, 0, 0, 0, 1, 0, 0, 0, 0, 1, 0, 8, 19.2, 8, 1], "mesh" : 1, "name" : "Part.30"}], "scene" : 0, "scenes" : [{"nodes" : [0, 1, 2, 3, 4, 5, 6, 7, 8, 9, 10, 11, 12, 13, 14, 15, 16, 17, 18, 19, 20, 21, 22, 23, 24, 25, 26, 27, 28, 29, 30]}]}